<?xml version="1.0" encoding="UTF-8" standalone="no"?>
<!-- Created with Inkscape (http://www.inkscape.org/) -->
<svg xmlns:dc="http://purl.org/dc/elements/1.1/" xmlns:cc="http://creativecommons.org/ns#" xmlns:rdf="http://www.w3.org/1999/02/22-rdf-syntax-ns#" xmlns:svg="http://www.w3.org/2000/svg" xmlns="http://www.w3.org/2000/svg" xmlns:xlink="http://www.w3.org/1999/xlink" xmlns:sodipodi="http://sodipodi.sourceforge.net/DTD/sodipodi-0.dtd" xmlns:inkscape="http://www.inkscape.org/namespaces/inkscape" height="80" width="80" viewBox="0 0 128 128" id="svg4225" sodipodi:version="0.32" inkscape:version="0.45+0.46pre0+devel" version="1.0" sodipodi:docname="folder3.svg" inkscape:output_extension="org.inkscape.output.svg.inkscape">
  <defs id="defs4227">
    <filter inkscape:collect="always" id="filter3530">
      <feGaussianBlur inkscape:collect="always" stdDeviation="1.0172855" id="feGaussianBlur3532"/>
    </filter>
    <linearGradient inkscape:collect="always" id="linearGradient3534">
      <stop style="stop-color:#ffffff;stop-opacity:1;" offset="0" id="stop3536"/>
      <stop style="stop-color:#ffffff;stop-opacity:0;" offset="1" id="stop3538"/>
    </linearGradient>
    <linearGradient inkscape:collect="always" xlink:href="#linearGradient3534" id="linearGradient12679" gradientUnits="userSpaceOnUse" gradientTransform="translate(-549.102, -163.201)" x1="81.348701" y1="55.91547" x2="114.70522" y2="140.30176"/>
    <filter inkscape:collect="always" id="filter3500">
      <feGaussianBlur inkscape:collect="always" stdDeviation="1.0208063" id="feGaussianBlur3502"/>
    </filter>
    <linearGradient inkscape:collect="always" id="linearGradient3488">
      <stop style="stop-color:#000000;stop-opacity:1;" offset="0" id="stop3490"/>
      <stop style="stop-color:#000000;stop-opacity:0;" offset="1" id="stop3492"/>
    </linearGradient>
    <linearGradient inkscape:collect="always" xlink:href="#linearGradient3488" id="linearGradient12677" gradientUnits="userSpaceOnUse" gradientTransform="translate(-549.102, -163.201)" x1="75.485207" y1="216.26877" x2="150.18037" y2="78.337875"/>
    <linearGradient inkscape:collect="always" id="linearGradient3428">
      <stop style="stop-color:#ffffff;stop-opacity:1;" offset="0" id="stop3430"/>
      <stop style="stop-color:#ffffff;stop-opacity:0;" offset="1" id="stop3432"/>
    </linearGradient>
    <linearGradient inkscape:collect="always" xlink:href="#linearGradient3428" id="linearGradient12675" gradientUnits="userSpaceOnUse" gradientTransform="translate(-549.102, -163.201)" x1="150.07268" y1="69.702202" x2="153.63531" y2="103.83543"/>
    <linearGradient inkscape:collect="always" id="linearGradient3413">
      <stop style="stop-color:#000000;stop-opacity:1;" offset="0" id="stop3415"/>
      <stop style="stop-color:#000000;stop-opacity:0;" offset="1" id="stop3417"/>
    </linearGradient>
    <linearGradient inkscape:collect="always" xlink:href="#linearGradient3413" id="linearGradient12673" gradientUnits="userSpaceOnUse" gradientTransform="translate(-549.102, -163.201)" x1="-75.3908" y1="321.58548" x2="127.22198" y2="102.69514"/>
    <linearGradient id="linearGradient3468">
      <stop style="stop-color:#d8d8d8;stop-opacity:1;" offset="0" id="stop3470"/>
      <stop id="stop3476" offset="0.22455101" style="stop-color:#f0f0f0;stop-opacity:1;"/>
      <stop style="stop-color:#ffffff;stop-opacity:1;" offset="0.46812087" id="stop3478"/>
      <stop id="stop3480" offset="0.76308393" style="stop-color:#f3f3f3;stop-opacity:1;"/>
      <stop style="stop-color:#d6d6d6;stop-opacity:1;" offset="1" id="stop3472"/>
    </linearGradient>
    <linearGradient inkscape:collect="always" xlink:href="#linearGradient3468" id="linearGradient12671" gradientUnits="userSpaceOnUse" gradientTransform="translate(-549.102, -163.201)" x1="198.59323" y1="97.137428" x2="58.94891" y2="147.25517"/>
    <linearGradient id="linearGradient3889">
      <stop id="stop3891" offset="0" style="stop-color:#e1b73f;stop-opacity:0.58431375;"/>
      <stop id="stop3893" offset="1" style="stop-color:#aa7d19;stop-opacity:1"/>
    </linearGradient>
    <linearGradient inkscape:collect="always" xlink:href="#linearGradient3889" id="linearGradient12669" gradientUnits="userSpaceOnUse" gradientTransform="translate(-549.102, -163.201)" x1="215.03511" y1="74.194183" x2="47.782467" y2="162.96616"/>
    <linearGradient id="linearGradient3883">
      <stop id="stop3885" offset="0" style="stop-color:#ffffda;stop-opacity:0.60000002"/>
      <stop id="stop3887" offset="1" style="stop-color:#c5a100;stop-opacity:0.71428573"/>
    </linearGradient>
    <linearGradient inkscape:collect="always" xlink:href="#linearGradient3883" id="linearGradient12667" gradientUnits="userSpaceOnUse" gradientTransform="matrix(0.314576, 0.0330998, -0.0317028, 0.284888, -530.57, -223.102)" x1="664.31964" y1="393.5126" x2="255.13704" y2="778.66467"/>
    <linearGradient inkscape:collect="always" xlink:href="#linearGradient4454" id="linearGradient12665" gradientUnits="userSpaceOnUse" gradientTransform="matrix(0.993235, -0.116122, 0.116122, 0.993235, -28.7192, -14.0065)" x1="349.60196" y1="326.19418" x2="307.88712" y2="456.34085"/>
    <linearGradient inkscape:collect="always" xlink:href="#linearGradient4240" id="linearGradient12663" gradientUnits="userSpaceOnUse" gradientTransform="matrix(0.997068, 0.0765231, -0.0765231, 0.997068, 44.4115, -82.1762)" x1="336.34567" y1="336.50391" x2="321.64944" y2="448.71246"/>
    <linearGradient inkscape:collect="always" xlink:href="#linearGradient4454" id="linearGradient12661" gradientUnits="userSpaceOnUse" gradientTransform="matrix(0.993235, -0.116122, 0.116122, 0.993235, -28.7192, -14.0065)" x1="349.60196" y1="326.19418" x2="307.88712" y2="456.34085"/>
    <linearGradient inkscape:collect="always" xlink:href="#linearGradient4240" id="linearGradient12659" gradientUnits="userSpaceOnUse" gradientTransform="matrix(0.997068, 0.0765231, -0.0765231, 0.997068, 44.4115, -82.1762)" x1="336.34567" y1="336.50391" x2="321.64944" y2="448.71246"/>
    <linearGradient id="linearGradient4454">
      <stop id="stop4456" offset="0" style="stop-color:#d5d4d0;stop-opacity:1;"/>
      <stop style="stop-color:#f1f1f1;stop-opacity:1;" offset="0.24538536" id="stop4464"/>
      <stop style="stop-color:#ffffff;stop-opacity:1;" offset="0.49077073" id="stop4462"/>
      <stop id="stop4466" offset="0.74538535" style="stop-color:#f0f0f0;stop-opacity:1;"/>
      <stop id="stop4458" offset="1" style="stop-color:#d4d4d4;stop-opacity:1;"/>
    </linearGradient>
    <linearGradient inkscape:collect="always" xlink:href="#linearGradient4454" id="linearGradient12657" gradientUnits="userSpaceOnUse" gradientTransform="matrix(0.993235, -0.116122, 0.116122, 0.993235, -28.7192, -14.0065)" x1="349.60196" y1="326.19418" x2="307.88712" y2="456.34085"/>
    <linearGradient id="linearGradient4240">
      <stop id="stop4242" offset="0" style="stop-color:#eeeeed;stop-opacity:1;"/>
      <stop id="stop4244" offset="1" style="stop-color:#a6a6a6;stop-opacity:1;"/>
    </linearGradient>
    <linearGradient inkscape:collect="always" xlink:href="#linearGradient4240" id="linearGradient12655" gradientUnits="userSpaceOnUse" gradientTransform="matrix(0.997068, 0.0765231, -0.0765231, 0.997068, 44.4115, -82.1762)" x1="336.34567" y1="336.50391" x2="321.64944" y2="448.71246"/>
    <filter id="filter4488" inkscape:collect="always">
      <feGaussianBlur id="feGaussianBlur4490" stdDeviation="1.5865538" inkscape:collect="always"/>
    </filter>
    <linearGradient inkscape:collect="always" id="linearGradient3548">
      <stop style="stop-color:#ffffff;stop-opacity:1;" offset="0" id="stop3550"/>
      <stop style="stop-color:#ffffff;stop-opacity:0;" offset="1" id="stop3552"/>
    </linearGradient>
    <linearGradient inkscape:collect="always" xlink:href="#linearGradient3548" id="linearGradient12653" gradientUnits="userSpaceOnUse" gradientTransform="translate(-529.082, -219.589)" x1="78.742409" y1="77.995888" x2="26.839462" y2="35.082928"/>
    <filter inkscape:collect="always" id="filter3342" x="-0.012873816" width="1.0257477" y="-0.17679441" height="1.3535888">
      <feGaussianBlur inkscape:collect="always" stdDeviation="0.73981434" id="feGaussianBlur3344"/>
    </filter>
    <linearGradient inkscape:collect="always" id="linearGradient3354">
      <stop style="stop-color:#ffffff;stop-opacity:1;" offset="0" id="stop3356"/>
      <stop style="stop-color:#ffffff;stop-opacity:0;" offset="1" id="stop3358"/>
    </linearGradient>
    <linearGradient inkscape:collect="always" xlink:href="#linearGradient3354" id="linearGradient12651" gradientUnits="userSpaceOnUse" gradientTransform="translate(-549.102, -163.201)" x1="122.18343" y1="38.274925" x2="50.208416" y2="94.389671"/>
    <filter inkscape:collect="always" id="filter3384" x="-0.11909245" width="1.2381849" y="-0.021204988" height="1.04241">
      <feGaussianBlur inkscape:collect="always" stdDeviation="0.81591018" id="feGaussianBlur3386"/>
    </filter>
    <linearGradient inkscape:collect="always" id="linearGradient3368">
      <stop style="stop-color:#000000;stop-opacity:1;" offset="0" id="stop3370"/>
      <stop style="stop-color:#000000;stop-opacity:0;" offset="1" id="stop3372"/>
    </linearGradient>
    <linearGradient inkscape:collect="always" xlink:href="#linearGradient3368" id="linearGradient12649" gradientUnits="userSpaceOnUse" gradientTransform="matrix(1.0011, 0, 0, 0.977144, -428.227, -61.4897)" x1="-52.615292" y1="111.33359" x2="-89.16851" y2="-160.22696"/>
    <linearGradient inkscape:collect="always" id="linearGradient3445">
      <stop style="stop-color:#ffffff;stop-opacity:1;" offset="0" id="stop3447"/>
      <stop style="stop-color:#ffffff;stop-opacity:0;" offset="1" id="stop3449"/>
    </linearGradient>
    <linearGradient inkscape:collect="always" xlink:href="#linearGradient3445" id="linearGradient12647" gradientUnits="userSpaceOnUse" gradientTransform="matrix(1, 0, 0, 0.663418, -549.102, -146.131)" x1="79.24601" y1="-126.40256" x2="140.07268" y2="166.59012"/>
    <linearGradient id="linearGradient3871">
      <stop style="stop-color:#d0ac44;stop-opacity:1" offset="0" id="stop3873"/>
      <stop style="stop-color:#aa7d19;stop-opacity:1" offset="1" id="stop3875"/>
    </linearGradient>
    <linearGradient inkscape:collect="always" xlink:href="#linearGradient3871" id="linearGradient12645" gradientUnits="userSpaceOnUse" gradientTransform="translate(-549.102, -163.201)" x1="46.210991" y1="40.43428" x2="115.25708" y2="167.01372"/>
    <linearGradient id="linearGradient3877">
      <stop id="stop3879" offset="0" style="stop-color:#fed51b;stop-opacity:1"/>
      <stop id="stop3881" offset="1" style="stop-color:#ffffda;stop-opacity:1"/>
    </linearGradient>
    <linearGradient inkscape:collect="always" xlink:href="#linearGradient3877" id="linearGradient12643" gradientUnits="userSpaceOnUse" gradientTransform="matrix(0.305945, -0.0295863, 0.0422292, 0.311153, -530.129, -128.337)" x1="218.05919" y1="352.40601" x2="274.42526" y2="77.315956"/>
    <inkscape:perspective sodipodi:type="inkscape:persp3d" inkscape:vp_x="-50 : 600 : 1" inkscape:vp_y="0 : 1000 : 0" inkscape:vp_z="700 : 600 : 1" inkscape:persp3d-origin="300 : 400 : 1" id="perspective4233"/>
  </defs>
  <sodipodi:namedview id="base" pagecolor="#ffffff" bordercolor="#666666" borderopacity="1.0" inkscape:pageopacity="0.0" inkscape:pageshadow="2" inkscape:cx="375" inkscape:cy="520" inkscape:zoom="0.35" inkscape:document-units="px" inkscape:current-layer="layer1" showgrid="false" inkscape:window-width="640" inkscape:window-height="664" inkscape:window-x="66" inkscape:window-y="87"/>
  <metadata id="metadata4230">
    <rdf:RDF>
      <cc:Work rdf:about="">
        <dc:format>image/svg+xml</dc:format>
        <dc:type rdf:resource="http://purl.org/dc/dcmitype/StillImage"/>
        <dc:title/>
        <dc:date/>
        <dc:creator>
          <cc:Agent>
            <dc:title/>
          </cc:Agent>
        </dc:creator>
        <dc:rights>
          <cc:Agent>
            <dc:title/>
          </cc:Agent>
        </dc:rights>
        <dc:publisher>
          <cc:Agent>
            <dc:title/>
          </cc:Agent>
        </dc:publisher>
        <dc:identifier/>
        <dc:source/>
        <dc:relation/>
        <dc:language/>
        <dc:subject>
          <rdf:Bag/>
        </dc:subject>
        <dc:coverage/>
        <dc:description/>
        <dc:contributor>
          <cc:Agent>
            <dc:title/>
          </cc:Agent>
        </dc:contributor>
        <cc:license rdf:resource=""/>
      </cc:Work>
    </rdf:RDF>
  </metadata>
  <g inkscape:groupmode="layer" inkscape:label="Warstwa 1" id="layer1" transform="translate(-696, -254.076)">
    <g id="g12233" transform="matrix(0.8611, 0, 0, 0.8611, 1148.5, 723.596)" inkscape:export-filename="C:\Documents and Settings\SarXos\Pulpit\folder3.png" inkscape:export-xdpi="90" inkscape:export-ydpi="90">
      <g transform="translate(-4.84832, 0.922103)" id="g12235">
        <g id="g12237" transform="matrix(0.767098, 0, 0, 1, -120.04, -405.71)">
          <path sodipodi:nodetypes="cccccccccccc" id="path12239" d="M -506.24217,-108.72388 L -463.96104,-112.81265 C -461.07235,-113.08237 -459.71029,-112.05976 -459.26337,-109.47742 L -458.52296,-104.31152 L -372.85676,-112.59583 C -371.37958,-112.73868 -370.02623,-111.64424 -369.82235,-110.14192 L -359.14929,-31.500818 C -358.9454,-29.998498 -359.97046,-28.674058 -361.44763,-28.531208 L -493.62379,-15.749168 C -495.10096,-15.606318 -496.45431,-16.700768 -496.6582,-18.203088 L -508.54051,-105.75427 C -508.74441,-107.25658 -507.71935,-108.58103 -506.24217,-108.72388 z" style="fill:url(#linearGradient12643);fill-opacity:1;fill-rule:nonzero;stroke:url(#linearGradient12645);stroke-width:1.5;stroke-linecap:butt;stroke-miterlimit:4;stroke-dasharray:none;stroke-dashoffset:0;stroke-opacity:1"/>
          <path sodipodi:nodetypes="cccccscccccc" id="path12241" d="M -462.97698,-112.48281 C -463.29155,-112.48758 -463.61589,-112.48445 -463.97698,-112.46208 L -506.25823,-109.74621 C -507.73541,-109.65144 -508.77463,-108.77335 -508.57073,-107.77669 L -500.98612,-68.946895 C -490.3678,-75.412584 -475.55251,-86.064051 -454.44573,-87.957069 C -413.19086,-91.618705 -391.54498,-98.700293 -369.74376,-103.1596 L -369.85198,-110.67914 C -370.05586,-111.67581 -371.40606,-112.41172 -372.88323,-112.31696 L -458.53948,-106.82302 L -459.28948,-110.24378 C -459.68053,-111.7428 -460.77496,-112.44941 -462.97698,-112.48281 z" style="opacity:0.32113821;fill:url(#linearGradient12647);fill-opacity:1;fill-rule:nonzero;stroke:none;stroke-width:1.5;stroke-linecap:butt;stroke-miterlimit:4;stroke-dasharray:none;stroke-dashoffset:0;stroke-opacity:1"/>
          <path sodipodi:nodetypes="cccc" id="path12243" d="M -492.3596,-17.090788 C -493.83839,-16.951208 -495.19324,-18.020638 -495.39735,-19.488628 L -507.29272,-105.0387 C -507.49685,-106.50667 -506.47066,-107.80085 -504.99185,-107.94043" style="fill:none;fill-opacity:1;fill-rule:nonzero;stroke:url(#linearGradient12649);stroke-width:1.48357332;stroke-linecap:butt;stroke-miterlimit:4;stroke-dasharray:none;stroke-dashoffset:0;stroke-opacity:1;filter:url(#filter3384)"/>
          <path sodipodi:nodetypes="cccccc" id="path12245" d="M -507.12798,-107.50386 L -464.84685,-111.59264 C -461.95816,-111.86235 -460.5961,-110.83974 -460.14918,-108.2574 L -459.40877,-103.09151 L -373.74257,-111.37582 C -372.26539,-111.51867 -370.91204,-110.42422 -370.70816,-108.9219" style="fill:none;fill-opacity:1;fill-rule:nonzero;stroke:url(#linearGradient12651);stroke-width:1.5;stroke-linecap:butt;stroke-miterlimit:4;stroke-dasharray:none;stroke-dashoffset:0;stroke-opacity:1;filter:url(#filter3342)"/>
          <rect ry="1.332105" transform="matrix(0.994544, -0.104314, 0.104314, 0.994544, 0, 0)" y="-157.32867" x="-490.92169" height="6.7793374" width="41.653458" id="rect12247" style="opacity:0.85772358;fill:url(#linearGradient12653);fill-opacity:1;fill-rule:nonzero;stroke:none;stroke-width:0.4765138;stroke-linecap:butt;stroke-miterlimit:4;stroke-dasharray:none;stroke-dashoffset:0;stroke-opacity:1"/>
        </g>
        <g id="g12249" transform="matrix(-0.409307, 0.527197, -0.631593, -0.403081, -90.9277, -537.614)">
          <path transform="matrix(0.973422, 0, 0, 0.983699, 9.44114, 5.67726)" sodipodi:nodetypes="ccccccccc" id="path12251" d="M 311.86303,285.43109 L 396.6901,275.9082 C 397.05128,275.86506 397.3766,276.12248 397.41953,276.48539 L 410.43384,372.05632 C 410.47675,372.41923 410.22056,372.74611 409.85937,372.78924 L 323.41759,383.11282 C 323.05641,383.15597 322.73109,382.89853 322.68817,382.53561 L 311.2886,286.16402 C 311.24566,285.80112 311.50186,285.47423 311.86303,285.43109 z" style="fill:none;fill-opacity:1;fill-rule:nonzero;stroke:#000000;stroke-width:2.951828;stroke-linecap:butt;stroke-miterlimit:0;stroke-dasharray:none;stroke-dashoffset:0;stroke-opacity:1;filter:url(#filter4488)"/>
          <path sodipodi:nodetypes="ccccccccc" id="path12253" d="M 310.15766,284.32042 L 396.75945,274.63202 C 397.1274,274.58828 397.45882,274.84928 397.50256,275.21723 L 410.57765,372.14842 C 410.62137,372.51637 410.36037,372.84779 409.99241,372.89152 L 321.92898,383.35844 C 321.56103,383.40218 321.2296,383.14117 321.18588,382.77321 L 309.57245,285.06353 C 309.52871,284.69559 309.78972,284.36416 310.15766,284.32042 z" style="fill:#ffffff;fill-opacity:1;fill-rule:nonzero;stroke:url(#linearGradient12655);stroke-width:0.80000001;stroke-linecap:butt;stroke-miterlimit:0;stroke-dasharray:none;stroke-dashoffset:0;stroke-opacity:1"/>
          <path sodipodi:nodetypes="ccccccccc" id="path12255" d="M 314.09399,286.83787 L 394.0067,277.66806 C 394.34405,277.62795 394.6486,277.87327 394.68958,278.21808 L 406.39582,369.35961 C 406.43679,369.70446 406.1982,370.01436 405.86086,370.05445 L 325.12193,379.65431 C 324.78456,379.69442 324.48001,379.44909 324.43905,379.10426 L 313.55902,287.5327 C 313.51804,287.18789 313.75665,286.87799 314.09399,286.83787 z" style="fill:url(#linearGradient12657);fill-opacity:1;fill-rule:nonzero;stroke:none;stroke-width:0.74155813;stroke-linecap:butt;stroke-miterlimit:0;stroke-dasharray:none;stroke-dashoffset:0;stroke-opacity:1"/>
        </g>
        <g id="g12257" transform="matrix(-0.0202471, 0.821255, -0.941542, 0.024425, -134.863, -774.167)">
          <path transform="matrix(0.973422, 0, 0, 0.983699, 9.44114, 5.67726)" sodipodi:nodetypes="ccccccccc" id="path12259" d="M 311.86303,285.43109 L 396.6901,275.9082 C 397.05128,275.86506 397.3766,276.12248 397.41953,276.48539 L 410.43384,372.05632 C 410.47675,372.41923 410.22056,372.74611 409.85937,372.78924 L 323.41759,383.11282 C 323.05641,383.15597 322.73109,382.89853 322.68817,382.53561 L 311.2886,286.16402 C 311.24566,285.80112 311.50186,285.47423 311.86303,285.43109 z" style="fill:none;fill-opacity:1;fill-rule:nonzero;stroke:#000000;stroke-width:2.951828;stroke-linecap:butt;stroke-miterlimit:0;stroke-dasharray:none;stroke-dashoffset:0;stroke-opacity:1;filter:url(#filter4488)"/>
          <path sodipodi:nodetypes="ccccccccc" id="path12261" d="M 310.15766,284.32042 L 396.75945,274.63202 C 397.1274,274.58828 397.45882,274.84928 397.50256,275.21723 L 410.57765,372.14842 C 410.62137,372.51637 410.36037,372.84779 409.99241,372.89152 L 321.92898,383.35844 C 321.56103,383.40218 321.2296,383.14117 321.18588,382.77321 L 309.57245,285.06353 C 309.52871,284.69559 309.78972,284.36416 310.15766,284.32042 z" style="fill:#ffffff;fill-opacity:1;fill-rule:nonzero;stroke:url(#linearGradient12659);stroke-width:0.80000001;stroke-linecap:butt;stroke-miterlimit:0;stroke-dasharray:none;stroke-dashoffset:0;stroke-opacity:1"/>
          <path sodipodi:nodetypes="ccccccccc" id="path12263" d="M 314.09399,286.83787 L 394.0067,277.66806 C 394.34405,277.62795 394.6486,277.87327 394.68958,278.21808 L 406.39582,369.35961 C 406.43679,369.70446 406.1982,370.01436 405.86086,370.05445 L 325.12193,379.65431 C 324.78456,379.69442 324.48001,379.44909 324.43905,379.10426 L 313.55902,287.5327 C 313.51804,287.18789 313.75665,286.87799 314.09399,286.83787 z" style="fill:url(#linearGradient12661);fill-opacity:1;fill-rule:nonzero;stroke:none;stroke-width:0.74155813;stroke-linecap:butt;stroke-miterlimit:0;stroke-dasharray:none;stroke-dashoffset:0;stroke-opacity:1"/>
        </g>
        <g id="g12265" transform="matrix(-0.0534942, 0.788216, -0.952547, 0.0234424, -116.277, -760.376)">
          <path transform="matrix(0.973422, 0, 0, 0.983699, 9.44114, 5.67726)" sodipodi:nodetypes="ccccccccc" id="path12267" d="M 311.86303,285.43109 L 396.6901,275.9082 C 397.05128,275.86506 397.3766,276.12248 397.41953,276.48539 L 410.43384,372.05632 C 410.47675,372.41923 410.22056,372.74611 409.85937,372.78924 L 323.41759,383.11282 C 323.05641,383.15597 322.73109,382.89853 322.68817,382.53561 L 311.2886,286.16402 C 311.24566,285.80112 311.50186,285.47423 311.86303,285.43109 z" style="fill:none;fill-opacity:1;fill-rule:nonzero;stroke:#000000;stroke-width:2.951828;stroke-linecap:butt;stroke-miterlimit:0;stroke-dasharray:none;stroke-dashoffset:0;stroke-opacity:1;filter:url(#filter4488)"/>
          <path sodipodi:nodetypes="ccccccccc" id="path12269" d="M 310.15766,284.32042 L 396.75945,274.63202 C 397.1274,274.58828 397.45882,274.84928 397.50256,275.21723 L 410.57765,372.14842 C 410.62137,372.51637 410.36037,372.84779 409.99241,372.89152 L 321.92898,383.35844 C 321.56103,383.40218 321.2296,383.14117 321.18588,382.77321 L 309.57245,285.06353 C 309.52871,284.69559 309.78972,284.36416 310.15766,284.32042 z" style="fill:#ffffff;fill-opacity:1;fill-rule:nonzero;stroke:url(#linearGradient12663);stroke-width:0.80000001;stroke-linecap:butt;stroke-miterlimit:0;stroke-dasharray:none;stroke-dashoffset:0;stroke-opacity:1"/>
          <path sodipodi:nodetypes="ccccccccc" id="path12271" d="M 314.09399,286.83787 L 394.0067,277.66806 C 394.34405,277.62795 394.6486,277.87327 394.68958,278.21808 L 406.39582,369.35961 C 406.43679,369.70446 406.1982,370.01436 405.86086,370.05445 L 325.12193,379.65431 C 324.78456,379.69442 324.48001,379.44909 324.43905,379.10426 L 313.55902,287.5327 C 313.51804,287.18789 313.75665,286.87799 314.09399,286.83787 z" style="fill:url(#linearGradient12665);fill-opacity:1;fill-rule:nonzero;stroke:none;stroke-width:0.74155813;stroke-linecap:butt;stroke-miterlimit:0;stroke-dasharray:none;stroke-dashoffset:0;stroke-opacity:1"/>
        </g>
        <g id="g12273" transform="matrix(0.767098, 0, 0, 1, -121.217, -406.887)">
          <path sodipodi:nodetypes="ccccccccc" id="path12275" d="M -477.40032,-80.856207 L -342.45791,-94.236596 C -340.96502,-94.383839 -340.21936,-93.547653 -340.78602,-92.361755 L -356.52405,-30.600228 C -357.09074,-29.414318 -358.74879,-28.341068 -360.24169,-28.193828 L -493.82464,-15.018648 C -495.31754,-14.871408 -496.06319,-15.707598 -495.49652,-16.893508 L -481.11796,-78.44981 C -480.55128,-79.635707 -478.8932,-80.708969 -477.40032,-80.856207 z" style="fill:url(#linearGradient12667);fill-opacity:1;fill-rule:nonzero;stroke:url(#linearGradient12669);stroke-width:1.5;stroke-linecap:butt;stroke-miterlimit:4;stroke-dasharray:none;stroke-dashoffset:0;stroke-opacity:1"/>
          <path id="path12277" d="M -350.50875,-56.711958 C -394.56805,-52.258608 -452.46288,-46.436738 -487.78999,-43.024458 L -493.69624,-17.805708 C -494.25373,-16.639028 -493.50868,-15.817108 -492.03999,-15.961958 L -360.63375,-28.930708 C -359.16506,-29.075558 -357.535,-30.139018 -356.9775,-31.305708 L -350.50875,-56.711958 z" style="opacity:0.8048782;fill:url(#linearGradient12671);fill-opacity:1;fill-rule:nonzero;stroke:none;stroke-width:1.5;stroke-linecap:butt;stroke-miterlimit:4;stroke-dasharray:none;stroke-dashoffset:0;stroke-opacity:1"/>
          <path sodipodi:nodetypes="ccccccccc" id="path12279" d="M -476.72364,-80.09756 L -343.96932,-93.260984 C -342.50065,-93.40584 -341.76708,-92.583213 -342.32455,-91.416544 L -357.80738,-30.656488 C -358.36489,-29.489798 -359.99605,-28.433948 -361.46474,-28.289098 L -492.88164,-15.327558 C -494.35032,-15.182708 -495.08388,-16.005338 -494.5264,-17.172018 L -480.381,-77.730182 C -479.8235,-78.89685 -478.19231,-79.952709 -476.72364,-80.09756 z" style="opacity:0.82113821;fill:url(#linearGradient12673);fill-opacity:1;fill-rule:nonzero;stroke:none;stroke-width:1.5;stroke-linecap:butt;stroke-miterlimit:4;stroke-dasharray:none;stroke-dashoffset:0;stroke-opacity:1"/>
          <path id="path12281" d="M -343.13323,-93.481838 L -475.88323,-80.325588 C -477.3519,-80.180737 -478.98198,-79.117257 -479.53948,-77.950588 L -487.63323,-43.325588 C -470.15963,-51.340708 -450.44496,-57.770398 -433.44573,-59.638088 C -395.43261,-63.814536 -369.0427,-66.17379 -343.57073,-83.513088 L -341.50823,-91.638088 C -340.95076,-92.804757 -341.66456,-93.626697 -343.13323,-93.481838 z" style="opacity:0.51626012;fill:url(#linearGradient12675);fill-opacity:1;fill-rule:nonzero;stroke:none;stroke-width:1.5;stroke-linecap:butt;stroke-miterlimit:4;stroke-dasharray:none;stroke-dashoffset:0;stroke-opacity:1"/>
          <path sodipodi:nodetypes="cccccc" id="path12283" d="M -357.24772,-31.250098 C -357.80757,-30.102158 -359.44559,-29.063268 -360.92046,-28.920748 L -492.8905,-16.167438 C -494.36537,-16.024908 -495.10202,-16.834328 -494.54219,-17.982268 L -480.33724,-77.567549 C -479.7774,-78.715477 -478.13935,-79.754372 -476.66449,-79.896898" style="fill:none;fill-opacity:1;fill-rule:nonzero;stroke:url(#linearGradient12677);stroke-width:1.46685326;stroke-linecap:butt;stroke-miterlimit:4;stroke-dasharray:none;stroke-dashoffset:0;stroke-opacity:1;filter:url(#filter3500)"/>
          <path sodipodi:nodetypes="cccc" id="path12285" d="M -478.56891,-79.880323 L -343.62651,-93.260712 C -342.13362,-93.407955 -341.38796,-92.571769 -341.95462,-91.385871 L -357.69265,-29.624348" style="fill:none;fill-opacity:1;fill-rule:nonzero;stroke:url(#linearGradient12679);stroke-width:1.5;stroke-linecap:butt;stroke-miterlimit:4;stroke-dasharray:none;stroke-dashoffset:0;stroke-opacity:1;filter:url(#filter3530)"/>
        </g>
      </g>
      <rect ry="1.5435134" y="-545.25574" x="-525.49542" height="148.64716" width="148.64716" id="rect12287" style="opacity:1;fill:none;fill-opacity:1;fill-rule:nonzero;stroke:none;stroke-width:1.35283852;stroke-linecap:butt;stroke-miterlimit:4;stroke-dasharray:none;stroke-dashoffset:0;stroke-opacity:0.71428576"/>
    </g>
  </g>
</svg>